<svg width="416" height="144" viewBox="0 0 416 144" fill="none" xmlns="http://www.w3.org/2000/svg">
<rect width="416" height="144" fill="black"/>
<path fill-rule="evenodd" clip-rule="evenodd" d="M131.762 78.2282C131.412 78.367 131.158 78.6504 130.878 78.8616C130.416 79.2099 129.946 79.5165 129.438 79.8211C128.857 80.1695 128.213 80.4903 127.498 80.704C126.959 80.8655 126.107 81.0013 125.444 80.8958C124.898 80.8093 124.456 80.8418 124.003 80.704C122.374 80.2065 121.414 79.1011 120.796 77.5947C120.433 76.7096 120.327 75.7043 120.144 74.6199C119.973 73.613 120.021 71.9501 120.182 70.9925C120.774 67.4756 121.528 65.4044 125.079 64.8124C127.072 64.4801 129.137 65.6466 130.187 66.3863C130.548 66.6406 131.551 67.5784 132.184 67.1732C132.991 66.6566 133.059 63.1423 132.606 62.0488C132.308 61.327 131.566 60.9709 130.917 60.5901C129.3 59.642 127.232 59.1666 124.637 59.2082C124.285 59.2339 123.933 59.2595 123.581 59.285C122.761 59.4305 121.969 59.5177 121.238 59.7456C118.396 60.6321 116.409 62.2718 115.016 64.6014C114.205 65.9582 113.719 67.5406 113.326 69.3227C113.093 70.3812 113.192 71.5289 113 72.7006C113.006 73.1547 113.013 73.6091 113.019 74.0633C113.032 74.4471 113.045 74.8309 113.058 75.215C113.213 76.1405 113.256 77.0605 113.461 77.8826C114.491 82.0109 116.542 84.867 120.451 86.0969C121.227 86.3411 122.062 86.4436 122.947 86.596C123.357 86.6217 123.767 86.6471 124.176 86.6728C124.867 86.786 125.741 86.6627 126.327 86.5578C128.207 86.2202 129.769 85.8582 131.128 85.0415C131.677 84.7114 132.348 84.3872 132.645 83.8132C133.119 82.8956 133.092 79.7128 132.722 78.6694C132.598 78.3205 132.24 78.0376 131.762 78.2282ZM303.422 61.3964C303.33 60.7748 303.389 60.258 303.09 59.8801C302.695 59.3818 301.061 59.1559 300.136 59.1698C299.871 59.1955 299.606 59.2211 299.341 59.2466C298.686 59.3853 298.099 59.587 297.606 59.8993C296.616 60.5264 295.72 61.4414 295.021 62.375C294.701 62.8165 294.381 63.2579 294.061 63.6993V63.7309C294.054 63.5004 294.048 63.2696 294.041 63.0392C294.041 62.3601 294.193 60.6673 293.926 60.2532C293.349 59.3586 288.616 59.3782 288.197 60.3686C288.029 60.7664 288.14 61.5536 288.14 62.0593V83.7289C288.14 84.2591 288.017 85.1629 288.235 85.5245C288.466 85.9082 289.077 86.0183 289.592 86.1168C290.956 86.3773 294.467 86.3338 294.944 85.4863C295.082 85.2414 295.021 84.7217 295.021 84.3593V69.9178C295.292 69.5147 295.562 69.1115 295.833 68.7087C296.663 67.4925 297.666 66.1266 299.249 65.7145C300.315 65.4374 301.316 65.9219 302.074 66.1751C302.482 66.3113 302.942 66.2525 303.127 65.9449C303.503 65.3173 303.581 62.4725 303.422 61.3964ZM265.474 70.1991C265.467 66.605 267.868 63.213 271.964 64.1153C272.521 64.2378 273.054 64.41 273.481 64.6717C275.081 65.6522 275.766 67.5768 275.728 70.1991H265.474ZM282.241 67.9572C281.775 65.8412 281.109 64.2034 279.994 62.7732C278.625 61.019 276.545 59.9583 273.981 59.394C273.321 59.2486 272.614 59.2796 271.906 59.1635H271.214C270.525 59.0495 269.348 59.171 268.717 59.2979C267.733 59.4958 266.809 59.6737 265.969 60.0084C262.655 61.328 260.433 63.8825 259.322 67.4004C259.07 68.1998 258.947 68.9973 258.765 69.8966C258.695 70.4789 258.624 71.0614 258.554 71.6439C258.548 71.9125 258.541 72.1815 258.535 72.4501V73.9863C258.548 74.3638 258.56 74.7416 258.573 75.1192C258.83 76.6458 258.911 78.0479 259.361 79.3241C260.653 82.993 262.999 85.0188 266.834 86.1594C267.727 86.4252 268.71 86.4529 269.715 86.62C270.375 86.6394 271.035 86.6586 271.694 86.6778C274.41 86.6778 276.742 86.255 278.822 85.6026C279.673 85.3356 280.752 85.0779 281.108 84.3161C281.49 83.4971 281.58 80.0703 280.743 79.8231C280.112 79.6374 279.45 80.045 279.033 80.2073C277.994 80.6114 276.886 80.8608 275.729 81.148C275.044 81.318 274.305 81.3132 273.558 81.436C272.894 81.5452 271.839 81.5187 271.214 81.4168C270.44 81.2905 269.784 81.2598 269.158 81.0136C266.775 80.0764 265.496 78.0352 265.547 74.6773H276.862C278.11 74.6775 280.749 74.8776 281.511 74.4279C282.406 73.9 282.51 72.8906 282.51 71.4517C282.504 71.0359 282.497 70.6197 282.491 70.2038C282.363 69.4357 282.398 68.6703 282.241 67.9572ZM216.128 78.8998C215.301 80.0151 213.832 81.199 212.345 81.6442C209.915 82.3717 207.81 81.1996 207.39 79.2837C207.235 78.5752 207.372 77.711 207.582 77.1917C208.64 74.5783 212.432 74.7456 216.128 74.7733V78.8998ZM223.009 71.3379C223.009 69.4602 223.126 67.4224 222.778 65.8489C221.971 62.2004 220.164 60.4864 216.614 59.5922C215.929 59.4194 215.243 59.415 214.483 59.285C213.464 59.111 211.524 59.0663 210.469 59.2466C209.42 59.4261 208.403 59.5282 207.473 59.784C205.723 60.2657 202.876 61.0146 202.25 62.5284C201.788 63.6466 201.984 67.1047 203.364 66.8854C204.216 66.7499 204.812 66.2727 205.495 65.9449C207.746 64.8652 213.568 63.1227 215.481 65.8105C216.24 66.8765 216.267 68.5753 216.249 70.436C209.989 70.4334 204.399 70.7339 201.904 74.4663C201.399 75.2232 201.052 76.075 200.829 77.1341C200.797 77.4795 200.765 77.8251 200.733 78.1706C200.727 78.5736 200.72 78.9766 200.714 79.3797C200.827 80.061 200.84 80.707 201.021 81.2988C201.855 84.029 203.753 85.5486 206.552 86.3274C207.461 86.5804 209.285 86.8777 210.507 86.6728C211.315 86.5374 212.058 86.4703 212.754 86.2506C214.161 85.8065 215.31 85.0552 216.345 84.2354C216.665 83.9284 216.985 83.6212 217.305 83.3141C217.298 84.0867 217.12 85.5233 217.574 85.8667C218.355 86.4577 222.431 86.4015 222.913 85.6557C223.103 85.362 223.009 84.6304 223.009 84.1778V71.3379ZM198.432 59.8801C198.038 59.3818 196.403 59.1559 195.478 59.1698C195.213 59.1955 194.949 59.2211 194.684 59.2466C194.029 59.3853 193.441 59.587 192.948 59.8993C191.958 60.5264 191.063 61.4414 190.363 62.375C190.043 62.8165 189.723 63.2579 189.403 63.6993V63.7309C189.397 63.5004 189.39 63.2696 189.384 63.0392C189.384 62.3601 189.536 60.6673 189.269 60.2532C188.691 59.3586 183.959 59.3782 183.54 60.3686C183.372 60.7664 183.482 61.5536 183.482 62.0593V83.7289C183.482 84.2591 183.36 85.1629 183.578 85.5245C183.809 85.9082 184.42 86.0183 184.935 86.1168C186.298 86.3773 189.81 86.3338 190.287 85.4863C190.425 85.2414 190.363 84.7217 190.363 84.3593V69.9178C190.634 69.5147 190.905 69.1115 191.176 68.7087C192.005 67.4925 193.008 66.1266 194.592 65.7145C195.657 65.4374 196.658 65.9219 197.417 66.1751C197.825 66.3113 198.285 66.2525 198.469 65.9449C198.846 65.3173 198.924 62.4725 198.765 61.3964C198.673 60.7748 198.731 60.258 198.432 59.8801ZM151.003 69.0157C150.613 70.9157 149.606 71.9513 147.662 72.2976C144.074 72.9365 141.905 69.5806 143.207 66.4055C143.598 65.4501 144.315 64.7136 145.28 64.3328C145.664 64.1816 146.136 64.2275 146.567 64.064C148.673 64.0543 149.864 64.6784 150.619 66.0023C150.806 66.3309 150.914 66.7641 151.003 67.1732C151.121 67.7124 151.111 68.4902 151.003 69.0157ZM143.418 85.5021C143.648 85.3166 143.879 85.131 144.109 84.9455C145.114 84.9774 146.119 85.0095 147.124 85.0415C147.892 85.0607 148.66 85.0799 149.428 85.0991C151.232 85.3802 153.176 85.9965 152.635 88.3619C152.56 88.6918 152.446 89.0374 152.29 89.3022C151.044 91.4097 146.387 91.9089 143.61 90.7609C142.459 90.2851 141.467 89.2882 141.997 87.5367C142.236 86.747 142.838 85.9688 143.418 85.5021ZM172.12 65.401H176.188C176.69 65.401 177.508 65.5075 177.847 65.3052C178.598 64.8559 178.595 63.1625 178.521 61.9696C178.48 61.3105 178.461 60.6641 178.194 60.2249C177.892 59.7295 177.221 59.8033 176.42 59.8033H172.12V55.8158C172.12 55.2893 172.237 54.4697 172.063 54.0519C171.883 53.6204 171.397 53.4987 170.893 53.3811C169.6 53.0791 166.383 53.0789 165.546 53.7069C165.157 53.9989 165.239 54.733 165.239 55.4132V59.8033H151.764C150.925 59.8033 150.384 59.6141 149.675 59.4772C148.408 59.2331 146.603 59.151 145.247 59.3814C141.222 60.0658 138.583 61.7685 137.369 65.2478C136.901 66.5911 136.685 68.8445 137.082 70.4813C137.319 71.4592 137.689 72.3137 138.194 73.031C138.411 73.2993 138.628 73.5677 138.845 73.8361C138.89 73.881 138.935 73.9256 138.98 73.9703C137.904 74.7695 136.863 76.3642 136.488 77.8619C135.893 80.2352 137.152 82.7763 138.788 83.3447C138.43 83.6385 138.072 83.9326 137.714 84.2267C136.922 84.8654 136.204 85.8795 135.779 86.8721C135.576 87.3434 135.446 87.8659 135.338 88.425C135.067 89.8239 135.471 91.2785 135.97 92.125C137.186 94.1874 139.413 95.0418 142.104 95.6332C142.76 95.7773 143.409 95.7638 144.117 95.8824C144.967 96.0249 145.931 95.9984 146.889 95.9974C147.445 95.9707 148.352 95.9271 148.908 95.9002C149.743 95.8133 150.56 95.8022 151.323 95.614C154.651 94.7934 157.633 93.4572 158.895 90.5913C159.167 89.973 159.372 89.3222 159.527 88.5784C159.812 87.2135 159.537 85.5706 159.125 84.5907C158.194 82.3797 156.394 81.1638 153.892 80.5267C153.248 80.3626 152.559 80.3177 151.86 80.2009C151.24 80.1754 150.621 80.1497 150.001 80.1243C149.477 80.1049 148.953 80.0857 148.429 80.0667C146.183 79.7029 143.539 80.4679 142.545 78.8204C142.347 78.4921 142.278 77.928 142.411 77.4593C142.554 76.9522 142.906 76.6502 143.101 76.2324C143.201 76.1716 144.213 76.6464 144.519 76.7501C145.631 77.1274 147.487 77.2841 148.889 77.0183C149.526 76.8978 150.164 76.8509 150.748 76.6733C153.74 75.7649 155.591 74.2446 156.671 71.4207C157.074 70.3659 157.393 68.507 157.074 67.1073C156.918 66.4231 156.664 65.9245 156.384 65.401H165.239V75.4989C165.239 78.3159 165.241 80.933 166.085 82.8567C166.944 84.8167 168.475 85.8489 170.775 86.3914C171.601 86.5865 173.088 86.7714 174.12 86.6029C175.346 86.4024 176.434 86.3326 177.387 85.9114C178.477 85.4299 178.304 84.6306 178.521 83.2988V82.1562C178.419 81.5072 178.518 80.7789 178.194 80.3541C177.898 79.9672 177.152 80.3228 176.825 80.4501C175.726 80.8764 173.996 80.9429 173.123 80.2583C172.08 79.4409 172.12 77.5159 172.12 75.6574V65.401ZM246.053 76.9231C245.688 77.3453 245.323 77.7675 244.958 78.1896C243.869 79.5446 242.63 80.5117 240.503 80.8576C239.334 81.0476 238.34 80.4836 237.757 80.0323C236.364 78.954 235.895 77.2054 235.51 75.0998C235.472 74.5368 235.433 73.9737 235.395 73.4108C235.277 72.686 235.352 71.7328 235.472 71.0693C235.894 68.7156 236.49 66.6899 238.179 65.6187C238.519 65.4032 238.934 65.2342 239.373 65.1229C239.646 65.0972 240.082 65.056 240.355 65.0301C242.548 65.131 243.97 66.3657 244.977 67.6146C245.207 67.8992 245.946 68.5371 246.053 68.8429V76.9231ZM252.934 51.2598C252.934 50.6433 253.077 49.3126 252.876 48.8517C252.487 47.9588 250.226 47.9897 248.881 48.0046C248.629 48.0236 248.22 48.0546 247.969 48.0736C247.246 48.1767 246.451 48.2442 246.149 48.7555C245.997 49.012 246.053 49.5347 246.053 49.9307V62.4138C245.699 62.0929 245.346 61.7717 244.992 61.4505C244.074 60.7358 243.106 60.0759 241.928 59.6205C239.496 58.6807 235.89 59.2496 234.064 60.314C231.222 61.9702 229.698 64.5092 228.802 68.1159C228.623 68.8332 228.586 69.5483 228.455 70.3313C228.313 71.1713 228.164 72.7715 228.3 73.7027C228.32 74.2484 228.339 74.7943 228.358 75.3403C228.535 76.4808 228.601 77.5804 228.86 78.615C229.79 82.3395 231.746 85.2193 235.297 86.3207C236.401 86.6631 238.103 86.9665 239.596 86.7253C240.382 86.5982 241.131 86.4982 241.793 86.2437C243.385 85.6317 244.589 84.7334 245.802 83.7586C246.226 83.3412 246.65 82.9236 247.074 82.5065C247.067 83.3879 246.888 85.5201 247.363 85.8778C248.185 86.4953 252.427 86.557 252.857 85.6272C253.088 85.127 252.934 83.6402 252.934 82.9495V51.2598Z" fill="#B8BEC8"/>
</svg>
