<svg width="48" height="48" viewBox="0 0 48 48" fill="none" xmlns="http://www.w3.org/2000/svg">
<g clip-path="url(#clip0_747_5279)">
<path d="M44 14.0002H30V10.0002H44V14.0002ZM47.452 34.0002C46.568 36.5942 43.394 40.0002 37.25 40.0002C31.102 40.0002 26.122 36.5422 26.122 28.6502C26.122 20.8302 30.772 16.8102 37.054 16.8102C43.218 16.8102 46.982 20.3742 47.804 25.6622C47.96 26.6742 48.022 28.0382 47.994 29.9422H31.94C32.2 36.3642 38.906 36.5662 41.116 34.0002H47.452ZM32.08 26.0002H42.01C41.8 22.9062 39.738 21.5622 37.056 21.5622C34.124 21.5622 32.502 23.0982 32.08 26.0002ZM12.932 39.9762H0V10.0422H13.906C24.858 10.2042 25.066 20.9302 19.346 23.8542C26.268 26.3742 26.5 39.9762 12.932 39.9762V39.9762ZM6 22.0002H13.168C18.184 22.0002 18.98 16.0002 12.544 16.0002H6V22.0002V22.0002ZM12.782 28.0002H6V34.0322H12.682C18.792 34.0322 18.418 28.0002 12.782 28.0002V28.0002Z" fill="#B8BEC8"/>
</g>
<defs>
<clipPath id="clip0_747_5279">
<rect width="48" height="48" fill="white"/>
</clipPath>
</defs>
</svg>
