<svg width="119" height="48" viewBox="0 0 119 48" fill="none" xmlns="http://www.w3.org/2000/svg">
<path d="M30.9773 6H36.3923V38H30.9773V6ZM55.3447 27.792C55.3447 32.6893 50.9897 33.0797 49.6942 33.0797C46.4574 33.0797 45.8685 30.215 45.8685 28.487V16.24H40.4535V28.4614C40.4535 31.495 41.4607 33.9987 43.226 35.6678C44.7855 37.1437 47.1221 37.9501 49.6536 37.9501C51.4487 37.9501 53.991 37.4214 55.3447 36.2528V38H60.7597V16.24H55.3447V27.792ZM71.5897 8.56H66.1747V16.24H62.1135V21.36H66.1747V38H71.5897V21.36H75.6509V16.24H71.5897V8.56ZM92.7041 31.4938C91.525 32.496 89.9682 33.0515 88.2597 33.0515C84.4936 33.0515 81.7279 30.4365 81.7279 26.8461C81.7279 23.2557 84.4056 20.7507 88.2597 20.7507C89.9384 20.7507 91.525 21.2794 92.7339 22.2816L93.5556 22.9498L97.2066 19.4989L96.2929 18.7194C94.1445 16.8851 91.2921 15.856 88.2584 15.856C81.4896 15.856 76.5742 20.4742 76.5742 26.8192C76.5742 33.1373 81.6074 37.9206 88.2584 37.9206C91.349 37.9206 94.2311 36.8915 96.3524 35.0278L97.2351 34.2483L93.5272 30.8L92.7041 31.4938ZM116.534 18.137C114.975 16.6624 113.147 15.856 110.615 15.856C108.82 15.856 106.787 16.3846 105.433 17.552V6H100.018V38H105.433V26.0128C105.433 21.1155 109.113 20.7264 110.408 20.7264C113.645 20.7264 113.556 23.5923 113.556 25.3178V38H118.971V25.3446C118.971 22.311 118.301 19.8074 116.534 18.137" fill="#B8BEC8"/>
<path d="M88.0813 23.2007C89.1196 23.2007 90.1154 23.5907 90.8497 24.2849C91.5839 24.9791 91.9964 25.9207 91.9964 26.9025C91.9964 27.8842 91.5839 28.8258 90.8497 29.52C90.1154 30.2142 89.1196 30.6042 88.0813 30.6042C87.043 30.6042 86.0472 30.2142 85.3129 29.52C84.5787 28.8258 84.1663 27.8842 84.1663 26.9025C84.1663 25.9207 84.5787 24.9791 85.3129 24.2849C86.0472 23.5907 87.043 23.2007 88.0813 23.2007" fill="#B8BEC8"/>
<path d="M23.3966 29.9626C21.3376 31.9658 18.5407 33.0513 15.5977 33.0513C9.5654 33.0513 5.17927 28.5713 5.17927 22.4222C5.17927 16.2449 9.5654 11.7649 15.5977 11.7649C18.5123 11.7649 21.278 12.849 23.3682 14.8254L24.1913 15.6049L27.8112 12.1822L27.0165 11.4026C24.0153 8.48039 19.954 6.89575 15.5977 6.89575C6.71036 6.89575 0.0296326 13.5735 0.0296326 22.449C0.0296326 31.2977 6.74014 37.9485 15.5977 37.9485C19.9838 37.9485 24.045 36.3358 27.0463 33.4135L27.8409 32.634L24.2508 29.1562L23.3966 29.9626Z" fill="#B8BEC8"/>
</svg>
