<svg width="150" height="56" viewBox="0 0 150 56" fill="none" xmlns="http://www.w3.org/2000/svg">
<path d="M66.8528 20.8697C64.5176 20.8697 62.4827 22.2658 61.1689 23.9484V12.6098C57.6801 14.4619 53.9148 15.8661 49.9573 16.7417C49.9533 16.7417 49.9493 16.7458 49.9413 16.7458C50.5342 17.0484 51.0709 17.4398 51.5436 17.92C52.1244 18.5051 52.577 19.183 52.8974 19.9416C53.0897 20.3935 53.2219 20.8656 53.306 21.3458C53.3581 21.6404 53.3901 21.947 53.4021 22.2537C53.4061 22.3263 53.4061 22.403 53.4061 22.4756C53.4061 22.75 53.4021 23.0204 53.3981 23.2948V35.7834C53.3981 37.6557 54.1472 39.4554 55.497 40.7385C57.3757 42.5261 60.0474 43.1596 61.8018 43.3977C62.9995 43.5631 64.2091 43.5994 65.4148 43.5026C65.7913 43.4743 66.1679 43.4299 66.5404 43.3734C67.7781 43.1596 68.9758 42.7641 70.1013 42.2073C73.9146 40.3875 75.7852 36.8567 75.7852 31.9622C75.7652 25.389 71.9038 20.8697 66.8528 20.8697ZM64.109 41.828C61.4453 41.828 61.193 38.9873 61.193 33.0113C61.193 27.0353 61.4453 24.1946 64.109 24.1946C66.7727 24.1946 66.985 27.0393 66.985 33.0113C66.985 38.9873 66.7327 41.828 64.109 41.828Z" fill="white"/>
<path d="M129.464 40.6338C128.63 40.6338 127.909 40.1415 127.569 39.4313C127.497 39.282 127.441 39.1206 127.409 38.9552C127.385 38.8422 127.369 38.7252 127.365 38.6082C127.365 38.5799 127.361 38.5476 127.361 38.5194C127.361 38.4952 127.361 38.471 127.365 38.4468C127.361 38.2652 127.361 38.0836 127.365 37.9061V27.0436C127.365 26.4302 127.257 25.8169 127.02 25.2479C126.744 24.5781 126.311 23.9648 125.63 23.3272C124.032 21.8665 121.4 20.9748 118.08 20.9748C112.095 20.9748 108.37 23.9769 108.37 27.5802C108.37 29.3355 109.492 30.4976 111.218 30.4976C113.029 30.4976 114.323 29.2104 114.323 27.1122C114.323 26.9144 114.307 26.6723 114.291 26.3939C114.266 25.9904 114.19 25.5788 114.19 25.1753C114.19 23.8921 115.128 22.8309 116.345 22.6413C116.474 22.6211 116.606 22.609 116.738 22.609C118.08 22.609 119.181 23.6621 119.277 24.9897C119.305 25.2076 119.326 25.4295 119.35 25.6393C119.398 26.1155 119.414 26.5916 119.414 27.0678V29.8439C119.414 29.8439 114.703 30.7195 112.684 31.3167C109.131 32.3659 106.788 33.5925 106.323 36.6673C105.915 39.3426 107.561 43.5027 112.492 43.5552C115.304 43.5835 117.675 41.9977 119.786 39.5968C119.786 39.5927 119.79 39.5927 119.79 39.5887C119.798 39.6129 119.81 39.6412 119.818 39.6654C120.788 41.6224 122.794 42.9661 125.114 42.9661C125.907 42.9661 126.664 42.8087 127.357 42.5222C128.122 42.2034 128.811 41.7313 129.375 41.1422C129.54 40.9727 129.692 40.7912 129.836 40.6015C129.72 40.6177 129.592 40.6338 129.464 40.6338ZM119.422 33.7378C119.422 34.3148 119.422 34.8959 119.402 35.4729C119.394 35.7311 119.382 35.9894 119.366 36.2476C119.338 36.6794 119.322 37.1394 119.233 37.5711C119.229 37.5994 119.221 37.6236 119.213 37.6478C118.973 38.6324 118.092 39.3668 117.038 39.3668C115.805 39.3668 114.799 38.354 114.799 37.1111C114.799 37.1031 114.799 37.095 114.799 37.0869C114.779 36.8327 114.791 36.5664 114.807 36.288C114.855 35.5738 115.036 34.8676 115.396 34.2462C116.077 33.0639 117.295 32.3538 118.544 31.9139C118.833 31.8131 119.125 31.7243 119.418 31.6436V33.7378H119.422Z" fill="white"/>
<path d="M146.663 41.703C148.506 41.703 150 40.1982 150 38.3418C150 36.4854 148.506 34.9806 146.663 34.9806C144.821 34.9806 143.327 36.4854 143.327 38.3418C143.327 40.1982 144.821 41.703 146.663 41.703Z" fill="white"/>
<path d="M84.4811 19.1669C86.3238 19.1669 87.8177 17.6621 87.8177 15.8057C87.8177 13.9493 86.3238 12.4445 84.4811 12.4445C82.6383 12.4445 81.1444 13.9493 81.1444 15.8057C81.1444 17.6621 82.6383 19.1669 84.4811 19.1669Z" fill="white"/>
<path d="M90.1734 42.1349C89.5565 42.1349 88.9957 41.8847 88.5832 41.4852C88.5792 41.4812 88.5752 41.4772 88.5671 41.4691C88.5631 41.4651 88.5591 41.461 88.5551 41.457C88.4189 41.3279 88.3028 41.1705 88.2066 41.001C88.0464 40.7307 87.9423 40.424 87.9022 40.1012C87.8582 39.7905 87.8662 39.4717 87.8662 39.157C87.8662 39.1529 87.8662 35.8119 87.8662 32.4466V21.2492C87.758 21.2895 87.6459 21.3299 87.5377 21.3702C85.0903 22.262 82.5468 22.9439 79.9231 23.3959C78.9538 23.5613 77.9764 23.6985 76.987 23.8034C76.975 23.8034 76.959 23.8074 76.947 23.8074C77.3315 24.0536 77.688 24.3441 78.0125 24.671C78.5933 25.2561 79.0499 25.938 79.3664 26.6966C79.5546 27.1404 79.6868 27.6045 79.7709 28.0766C79.7749 28.1048 79.7789 28.129 79.7829 28.1573C79.7869 28.1815 79.791 28.2097 79.795 28.234C79.803 28.2743 79.807 28.3187 79.811 28.359C79.811 28.3712 79.815 28.3792 79.815 28.3913C79.819 28.4115 79.819 28.4317 79.823 28.4519C79.823 28.4559 79.823 28.4559 79.823 28.4559C79.8671 28.7706 79.8911 29.0975 79.8911 29.4445V32.4466H79.8991C79.8991 35.8119 79.8991 39.1529 79.8991 39.157C79.8991 39.4273 79.9031 39.7017 79.8751 39.9721C79.847 40.42 79.6948 40.8316 79.4505 41.1745C79.4425 41.1826 79.4385 41.1907 79.4304 41.2028C79.4264 41.2068 79.4224 41.2149 79.4184 41.2189C79.3784 41.2714 79.3383 41.3238 79.2943 41.3723C79.2862 41.3803 79.2782 41.3924 79.2662 41.4005C79.2582 41.4086 79.2542 41.4126 79.2462 41.4207C78.8296 41.8605 78.2408 42.1349 77.5919 42.1349C77.4677 42.1349 77.3476 42.1228 77.2274 42.1066V42.9419H90.5379V42.1066C90.4137 42.1228 90.2935 42.1349 90.1734 42.1349Z" fill="white"/>
<path d="M102.209 28.8915C102.193 32.3052 102.177 35.6342 102.177 35.8682C102.189 37.0021 102.322 37.9463 102.51 38.725C102.594 39.1366 102.714 39.5361 102.878 39.9235C103.003 40.218 103.147 40.5005 103.311 40.7668C103.539 41.1582 103.772 41.4528 103.976 41.6666C104.06 41.7635 104.144 41.8563 104.236 41.9451C104.28 41.9894 104.389 42.0863 104.501 42.1831C104.505 42.1872 104.505 42.1872 104.509 42.1912C104.336 42.284 104.156 42.3687 103.972 42.4454C103.103 42.8166 102.181 43.0023 101.232 43.0023C100.279 43.0023 99.3575 42.8126 98.4883 42.4454C97.6511 42.0863 96.8941 41.5779 96.2492 40.9242C95.6043 40.2705 95.0956 39.5119 94.7391 38.6686C94.4147 37.8938 94.2304 37.0747 94.1943 36.2273V35.5978L94.1783 24.4085C94.1743 24.2673 94.1703 24.1341 94.1623 24.001C94.1583 23.9445 94.1543 23.888 94.1463 23.8355C94.1222 23.2988 94.0061 22.7823 93.7978 22.2901C93.5695 21.7494 93.245 21.2651 92.8325 20.8495C92.4199 20.4339 91.9352 20.1071 91.4025 19.8771C91.3544 19.8569 91.3023 19.8367 91.2543 19.8165C91.2583 19.8125 91.2623 19.8125 91.2663 19.8085C95.2799 17.92 98.965 15.4506 102.226 12.5049V19.7802H103.311C105.049 19.7802 106.363 19.6067 107.337 19.1871L106.7 21.3378L102.25 21.3418C102.25 21.3418 102.229 25.155 102.213 28.8794C102.209 28.8875 102.209 28.8915 102.209 28.8915Z" fill="white"/>
<path d="M51.2671 40.6338C50.4339 40.6338 49.7129 40.1415 49.3725 39.4313C49.3004 39.282 49.2443 39.1206 49.2122 38.9552C49.1882 38.8422 49.1722 38.7252 49.1682 38.6082C49.1682 38.5799 49.1642 38.5476 49.1642 38.5194C49.1642 38.4952 49.1642 38.471 49.1682 38.4468C49.1642 38.2652 49.1642 38.0836 49.1682 37.9061V27.0436C49.1682 26.4302 49.06 25.8169 48.8237 25.2479C48.5473 24.5781 48.1147 23.9648 47.4338 23.3272C45.8356 21.8665 43.2039 20.9748 39.8833 20.9748C33.899 20.9748 30.1738 23.9769 30.1738 27.5802C30.1738 29.3355 31.2954 30.4976 33.0218 30.4976C34.8323 30.4976 36.1261 29.2104 36.1261 27.1122C36.1261 26.9144 36.11 26.6723 36.094 26.3939C36.07 25.9904 35.9939 25.5788 35.9939 25.1753C35.9939 23.8921 36.9312 22.8309 38.1489 22.6413C38.2771 22.6211 38.4092 22.609 38.5414 22.609C39.8833 22.609 40.9848 23.6621 41.081 24.9897C41.109 25.2076 41.129 25.4295 41.1531 25.6393C41.2011 26.1155 41.2171 26.5916 41.2171 27.0678V29.8439C41.2171 29.8439 36.5066 30.7195 34.4878 31.3167C30.9349 32.3659 28.5916 33.5925 28.127 36.6673C27.7184 39.3426 29.3647 43.5027 34.2955 43.5552C37.1074 43.5835 39.4787 41.9977 41.5897 39.5968C41.5897 39.5927 41.5937 39.5927 41.5937 39.5887C41.6017 39.6129 41.6137 39.6412 41.6217 39.6654C42.591 41.6224 44.5978 42.9661 46.9171 42.9661C47.7102 42.9661 48.4672 42.8087 49.1602 42.5222C49.9252 42.2034 50.6142 41.7313 51.179 41.1422C51.3432 40.9727 51.4954 40.7912 51.6396 40.6015C51.5275 40.6177 51.3993 40.6338 51.2671 40.6338ZM41.2292 33.7378C41.2292 34.3148 41.2292 34.8959 41.2091 35.4729C41.2011 35.7311 41.1891 35.9894 41.1731 36.2476C41.145 36.6794 41.129 37.1394 41.0409 37.5711C41.0369 37.5994 41.0289 37.6236 41.0209 37.6478C40.7805 38.6324 39.8993 39.3668 38.8458 39.3668C37.6121 39.3668 36.6067 38.354 36.6067 37.1111C36.6067 37.1031 36.6067 37.095 36.6067 37.0869C36.5867 36.8327 36.5987 36.5664 36.6147 36.288C36.6628 35.5738 36.8431 34.8676 37.2036 34.2462C37.8845 33.0639 39.1022 32.3538 40.3519 31.9139C40.6403 31.8131 40.9327 31.7243 41.2252 31.6436V33.7378H41.2292Z" fill="white"/>
<path d="M139.497 28.8915C139.481 32.3052 139.465 35.6342 139.465 35.8682C139.477 37.0021 139.61 37.9463 139.798 38.725C139.882 39.1366 140.002 39.5361 140.166 39.9235C140.291 40.218 140.435 40.5005 140.599 40.7668C140.827 41.1582 141.06 41.4528 141.264 41.6666C141.348 41.7635 141.432 41.8563 141.524 41.9451C141.568 41.9894 141.676 42.0863 141.789 42.1831C141.793 42.1872 141.793 42.1872 141.797 42.1912C141.624 42.284 141.444 42.3687 141.26 42.4454C140.391 42.8166 139.469 43.0023 138.52 43.0023C137.567 43.0023 136.645 42.8126 135.776 42.4454C134.939 42.0863 134.182 41.5779 133.537 40.9242C132.892 40.2705 132.384 39.5119 132.027 38.6686C131.703 37.8938 131.518 37.0747 131.482 36.2273V35.5978L131.466 24.4085C131.462 24.2673 131.458 24.1341 131.45 24.001C131.446 23.9445 131.442 23.888 131.434 23.8355C131.41 23.2988 131.294 22.7823 131.086 22.2901C130.857 21.7494 130.533 21.2651 130.12 20.8495C129.708 20.4339 129.223 20.1071 128.69 19.8771C128.642 19.8569 128.59 19.8367 128.542 19.8165C128.546 19.8125 128.55 19.8125 128.554 19.8085C132.568 17.92 136.253 15.4506 139.513 12.5049V19.7802H140.599C142.337 19.7802 143.651 19.6067 144.625 19.1871L143.988 21.3378L139.538 21.3418C139.538 21.3418 139.517 25.155 139.501 28.8794C139.497 28.8875 139.497 28.8915 139.497 28.8915Z" fill="white"/>
<path d="M26.3206 42.1301C25.7438 42.1301 25.215 41.9122 24.8145 41.5571C24.6262 41.4038 24.466 41.202 24.3458 40.9801C24.3378 40.968 24.3338 40.9559 24.3258 40.9438C24.1776 40.6694 24.0815 40.3667 24.0534 40.0399C24.0534 40.0359 24.0534 40.0359 24.0534 40.0318C24.0454 39.9592 24.0374 39.8825 24.0334 39.8099C24.0214 39.596 24.0254 39.3822 24.0254 39.1683V27.9386C24.0254 27.8095 24.0254 27.6804 24.0214 27.5553C24.0174 27.3616 24.0053 27.176 23.9933 26.9904C23.9733 26.6958 23.9373 26.4093 23.8972 26.139C23.8131 25.687 23.6849 25.2432 23.5047 24.8154C23.1842 24.0568 22.7316 23.3749 22.1508 22.7898C21.57 22.2047 20.893 21.7447 20.14 21.426C19.8476 21.3009 19.5432 21.2 19.2387 21.1193C19.2347 21.1193 19.2347 21.1193 19.2307 21.1193C19.2107 21.1153 19.1947 21.1112 19.1746 21.1031C19.1506 21.0991 19.1306 21.091 19.1065 21.087C19.1025 21.087 19.0945 21.083 19.0905 21.083C19.0465 21.0749 19.0064 21.0628 18.9664 21.0547C18.5858 20.9781 18.1973 20.9377 17.7967 20.9296C17.7326 20.9296 17.6685 20.9296 17.6045 20.9337C17.6005 20.9337 17.5924 20.9337 17.5884 20.9337C17.4923 20.9377 17.3962 20.9377 17.3 20.9458C17.296 20.9458 17.292 20.9458 17.284 20.9458C17.268 20.9458 17.248 20.9458 17.2319 20.9498H17.2279C17.1278 20.9538 17.0237 20.9619 16.9235 20.97C14.6844 21.1475 12.5494 21.9707 11.0473 23.9358V12.7222C7.66665 14.4896 4.03761 15.8333 0.220306 16.6928C0.1442 16.717 0.0721002 16.7372 0 16.7573C0.224312 16.8744 0.444618 17.0075 0.652907 17.1487C0.692963 17.177 0.729013 17.2012 0.769069 17.2294C0.81313 17.2617 0.857191 17.294 0.901252 17.3263C0.905258 17.3303 0.909264 17.3344 0.917275 17.3384C1.1536 17.5159 1.37791 17.7137 1.59021 17.9275C2.17102 18.5126 2.62765 19.1945 2.94409 19.9531C3.27255 20.736 3.44078 21.5712 3.44078 22.4307C3.44078 22.5154 3.43678 22.6042 3.43678 22.6889C3.43277 23.6654 3.40473 24.6419 3.40473 25.6184C3.40473 25.6184 3.40473 39.1602 3.40473 39.1643C3.40473 39.3418 3.40473 39.5194 3.40072 39.6969C3.40072 39.7211 3.40072 39.7453 3.40072 39.7695C3.40072 41.0406 2.3753 42.0736 1.11355 42.0736C0.989375 42.0736 0.865202 42.0615 0.745035 42.0453L0.733018 42.9452H12.7898V42.2874C11.7884 42.0211 11.0514 41.1052 11.0514 40.0116V26.9218C11.0514 25.6225 12.0968 24.5693 13.3866 24.5693C14.6764 24.5693 15.7218 25.6225 15.7218 26.9218V40.0197C15.7218 41.1415 14.9408 42.0817 13.8953 42.3157V42.9492H26.6891V42.0978C26.5729 42.118 26.4487 42.1301 26.3206 42.1301Z" fill="white"/>
</svg>
